<svg xmlns="http://www.w3.org/2000/svg" viewBox="0 0 920 250" preserveAspectRatio="xMidYMid meet"><defs><clipPath id="__lottie_element_59"><rect width="920" height="250" x="0" y="0"></rect></clipPath></defs><g clip-path="url(#__lottie_element_59)"><g style="display: block;" transform="matrix(1,0,0,1,499.64300537109375,160.01400756835938)" opacity="1"><g opacity="1" transform="matrix(1,0,0,1,0,0)"><path fill="rgb(255,235,0)" fill-opacity="1" d=" M-72.15899658203125,78.79399871826172 C-45.18899917602539,78.79399871826172 -28.823999404907227,65.30899810791016 -28.823999404907227,45.409000396728516 C-28.823999404907227,1.2890000343322754 -90.88099670410156,25.24799919128418 -90.88099670410156,3.121999979019165 C-90.88099670410156,-3.947999954223633 -84.59600067138672,-8.005999565124512 -73.33699798583984,-8.005999565124512 C-62.34000015258789,-8.005999565124512 -55.79399871826172,-2.9010000228881836 -55.138999938964844,5.609000205993652 C-55.138999938964844,5.609000205993652 -30.003000259399414,5.609000205993652 -30.003000259399414,5.609000205993652 C-30.003000259399414,-15.862000465393066 -47.676998138427734,-28.822999954223633 -72.94499969482422,-28.822999954223633 C-98.4739990234375,-28.822999954223633 -114.18499755859375,-16.38599967956543 -114.18499755859375,3.7760000228881836 C-114.18499755859375,47.50299835205078 -52.38999938964844,24.593000411987305 -52.38999938964844,45.801998138427734 C-52.38999938964844,53.13399887084961 -59.327999114990234,57.97800064086914 -71.63500213623047,57.97800064086914 C-84.33399963378906,57.97800064086914 -91.53500366210938,51.694000244140625 -91.7969970703125,41.220001220703125 C-91.7969970703125,41.220001220703125 -117.3270034790039,41.220001220703125 -117.3270034790039,41.220001220703125 C-117.3270034790039,64.78600311279297 -98.73600006103516,78.79399871826172 -72.15899658203125,78.79399871826172z"></path></g><g opacity="1" transform="matrix(1,0,0,1,0,0)"><path fill="rgb(255,235,0)" fill-opacity="1" d=" M-229.49600219726562,76.6989974975586 C-229.49600219726562,76.6989974975586 -206.9770050048828,76.6989974975586 -206.9770050048828,76.6989974975586 C-206.9770050048828,76.6989974975586 -206.9770050048828,10.321999549865723 -206.9770050048828,10.321999549865723 C-206.9770050048828,10.321999549865723 -156.17999267578125,76.6989974975586 -156.17999267578125,76.6989974975586 C-156.17999267578125,76.6989974975586 -133.0070037841797,76.6989974975586 -133.0070037841797,76.6989974975586 C-133.0070037841797,76.6989974975586 -133.0070037841797,-26.72800064086914 -133.0070037841797,-26.72800064086914 C-133.0070037841797,-26.72800064086914 -155.65699768066406,-26.72800064086914 -155.65699768066406,-26.72800064086914 C-155.65699768066406,-26.72800064086914 -155.65699768066406,40.04100036621094 -155.65699768066406,40.04100036621094 C-155.65699768066406,40.04100036621094 -206.322998046875,-26.72800064086914 -206.322998046875,-26.72800064086914 C-206.322998046875,-26.72800064086914 -229.49600219726562,-26.72800064086914 -229.49600219726562,-26.72800064086914 C-229.49600219726562,-26.72800064086914 -229.49600219726562,76.6989974975586 -229.49600219726562,76.6989974975586z"></path></g><g opacity="1" transform="matrix(1,0,0,1,0,0)"><path fill="rgb(255,235,0)" fill-opacity="1" d=" M-271.0950012207031,76.6989974975586 C-271.0950012207031,76.6989974975586 -248.5760040283203,76.6989974975586 -248.5760040283203,76.6989974975586 C-248.5760040283203,76.6989974975586 -248.5760040283203,-26.72800064086914 -248.5760040283203,-26.72800064086914 C-248.5760040283203,-26.72800064086914 -271.0950012207031,-26.72800064086914 -271.0950012207031,-26.72800064086914 C-271.0950012207031,-26.72800064086914 -271.0950012207031,76.6989974975586 -271.0950012207031,76.6989974975586z"></path></g><g opacity="1" transform="matrix(1,0,0,1,0,0)"><path fill="rgb(255,235,0)" fill-opacity="1" d=" M-360.7929992675781,76.6989974975586 C-360.7929992675781,76.6989974975586 -282.37200927734375,76.6989974975586 -282.37200927734375,76.6989974975586 C-282.37200927734375,76.6989974975586 -282.37200927734375,56.93000030517578 -282.37200927734375,56.93000030517578 C-282.37200927734375,56.93000030517578 -338.2749938964844,56.93000030517578 -338.2749938964844,56.93000030517578 C-338.2749938964844,56.93000030517578 -338.2749938964844,-26.72800064086914 -338.2749938964844,-26.72800064086914 C-338.2749938964844,-26.72800064086914 -360.7929992675781,-26.72800064086914 -360.7929992675781,-26.72800064086914 C-360.7929992675781,-26.72800064086914 -360.7929992675781,76.6989974975586 -360.7929992675781,76.6989974975586z"></path></g><g opacity="1" transform="matrix(1,0,0,1,0,0)"><path fill="rgb(255,235,0)" fill-opacity="1" d=" M-428.4309997558594,56.79899978637695 C-446.760009765625,56.79899978637695 -459.0669860839844,43.18299865722656 -459.0669860839844,23.80699920654297 C-459.0669860839844,5.870999813079834 -446.760009765625,-6.828000068664551 -428.4309997558594,-6.828000068664551 C-410.6260070800781,-6.828000068664551 -398.58099365234375,5.870999813079834 -398.58099365234375,23.80699920654297 C-398.58099365234375,43.18299865722656 -410.6260070800781,56.79899978637695 -428.4309997558594,56.79899978637695z M-428.4309997558594,78.79399871826172 C-397.010009765625,78.79399871826172 -375.27801513671875,56.2760009765625 -375.27801513671875,24.461999893188477 C-375.27801513671875,-6.697000026702881 -397.010009765625,-28.822999954223633 -428.4309997558594,-28.822999954223633 C-460.3760070800781,-28.822999954223633 -482.3699951171875,-6.697000026702881 -482.3699951171875,24.461999893188477 C-482.3699951171875,56.2760009765625 -460.3760070800781,78.79399871826172 -428.4309997558594,78.79399871826172z"></path></g><g opacity="1" transform="matrix(1,0,0,1,0,0)"><path fill="rgb(255,235,0)" fill-opacity="1" d=" M-19.93600082397461,-43.30099868774414 C-19.93600082397461,-43.30099868774414 2.5829999446868896,-43.30099868774414 2.5829999446868896,-43.30099868774414 C2.5829999446868896,-43.30099868774414 2.5829999446868896,-85.98100280761719 2.5829999446868896,-85.98100280761719 C2.5829999446868896,-85.98100280761719 55.4739990234375,-85.98100280761719 55.4739990234375,-85.98100280761719 C55.4739990234375,-85.98100280761719 55.4739990234375,-106.7969970703125 55.4739990234375,-106.7969970703125 C55.4739990234375,-106.7969970703125 2.5829999446868896,-106.7969970703125 2.5829999446868896,-106.7969970703125 C2.5829999446868896,-106.7969970703125 2.5829999446868896,-126.43499755859375 2.5829999446868896,-126.43499755859375 C2.5829999446868896,-126.43499755859375 60.05699920654297,-126.43499755859375 60.05699920654297,-126.43499755859375 C60.05699920654297,-126.43499755859375 60.05699920654297,-146.72799682617188 60.05699920654297,-146.72799682617188 C60.05699920654297,-146.72799682617188 -19.93600082397461,-146.72799682617188 -19.93600082397461,-146.72799682617188 C-19.93600082397461,-146.72799682617188 -19.93600082397461,-43.30099868774414 -19.93600082397461,-43.30099868774414z"></path></g><g opacity="1" transform="matrix(1,0,0,1,0,0)"><path fill="rgb(255,235,0)" fill-opacity="1" d=" M-113.27400207519531,-43.30099868774414 C-113.27400207519531,-43.30099868774414 -90.75599670410156,-43.30099868774414 -90.75599670410156,-43.30099868774414 C-90.75599670410156,-43.30099868774414 -90.75599670410156,-85.98100280761719 -90.75599670410156,-85.98100280761719 C-90.75599670410156,-85.98100280761719 -37.86399841308594,-85.98100280761719 -37.86399841308594,-85.98100280761719 C-37.86399841308594,-85.98100280761719 -37.86399841308594,-106.7969970703125 -37.86399841308594,-106.7969970703125 C-37.86399841308594,-106.7969970703125 -90.75599670410156,-106.7969970703125 -90.75599670410156,-106.7969970703125 C-90.75599670410156,-106.7969970703125 -90.75599670410156,-126.43499755859375 -90.75599670410156,-126.43499755859375 C-90.75599670410156,-126.43499755859375 -33.28200149536133,-126.43499755859375 -33.28200149536133,-126.43499755859375 C-33.28200149536133,-126.43499755859375 -33.28200149536133,-146.72799682617188 -33.28200149536133,-146.72799682617188 C-33.28200149536133,-146.72799682617188 -113.27400207519531,-146.72799682617188 -113.27400207519531,-146.72799682617188 C-113.27400207519531,-146.72799682617188 -113.27400207519531,-43.30099868774414 -113.27400207519531,-43.30099868774414z"></path></g><g opacity="1" transform="matrix(1,0,0,1,0,0)"><path fill="rgb(255,235,0)" fill-opacity="1" d=" M-202.9720001220703,-43.30099868774414 C-202.9720001220703,-43.30099868774414 -124.5510025024414,-43.30099868774414 -124.5510025024414,-43.30099868774414 C-124.5510025024414,-43.30099868774414 -124.5510025024414,-63.06999969482422 -124.5510025024414,-63.06999969482422 C-124.5510025024414,-63.06999969482422 -180.45399475097656,-63.06999969482422 -180.45399475097656,-63.06999969482422 C-180.45399475097656,-63.06999969482422 -180.45399475097656,-146.72799682617188 -180.45399475097656,-146.72799682617188 C-180.45399475097656,-146.72799682617188 -202.9720001220703,-146.72799682617188 -202.9720001220703,-146.72799682617188 C-202.9720001220703,-146.72799682617188 -202.9720001220703,-43.30099868774414 -202.9720001220703,-43.30099868774414z"></path></g><g opacity="1" transform="matrix(1,0,0,1,0,0)"><path fill="rgb(255,235,0)" fill-opacity="1" d=" M-270.6109924316406,-63.20100021362305 C-288.94000244140625,-63.20100021362305 -301.2460021972656,-76.81700134277344 -301.2460021972656,-96.19300079345703 C-301.2460021972656,-114.12899780273438 -288.94000244140625,-126.8280029296875 -270.6109924316406,-126.8280029296875 C-252.80599975585938,-126.8280029296875 -240.76100158691406,-114.12899780273438 -240.76100158691406,-96.19300079345703 C-240.76100158691406,-76.81700134277344 -252.80599975585938,-63.20100021362305 -270.6109924316406,-63.20100021362305z M-270.6109924316406,-41.20600128173828 C-239.19000244140625,-41.20600128173828 -217.45700073242188,-63.7239990234375 -217.45700073242188,-95.53800201416016 C-217.45700073242188,-126.6969985961914 -239.19000244140625,-148.822998046875 -270.6109924316406,-148.822998046875 C-302.5559997558594,-148.822998046875 -324.54998779296875,-126.6969985961914 -324.54998779296875,-95.53800201416016 C-324.54998779296875,-63.7239990234375 -302.5559997558594,-41.20600128173828 -270.6109924316406,-41.20600128173828z"></path></g><g opacity="1" transform="matrix(1,0,0,1,0,0)"><path fill="rgb(255,235,0)" fill-opacity="1" d=" M-452.52099609375,-43.30099868774414 C-452.52099609375,-43.30099868774414 -428.0379943847656,-43.30099868774414 -428.0379943847656,-43.30099868774414 C-428.0379943847656,-43.30099868774414 -405.3890075683594,-113.08100128173828 -405.3890075683594,-113.08100128173828 C-405.3890075683594,-113.08100128173828 -382.4779968261719,-43.30099868774414 -382.4779968261719,-43.30099868774414 C-382.4779968261719,-43.30099868774414 -357.9960021972656,-43.30099868774414 -357.9960021972656,-43.30099868774414 C-357.9960021972656,-43.30099868774414 -324.87298583984375,-146.72799682617188 -324.87298583984375,-146.72799682617188 C-324.87298583984375,-146.72799682617188 -349.8789978027344,-146.72799682617188 -349.8789978027344,-146.72799682617188 C-349.8789978027344,-146.72799682617188 -370.82598876953125,-73.80500030517578 -370.82598876953125,-73.80500030517578 C-370.82598876953125,-73.80500030517578 -391.77301025390625,-146.72799682617188 -391.77301025390625,-146.72799682617188 C-391.77301025390625,-146.72799682617188 -419.135986328125,-146.72799682617188 -419.135986328125,-146.72799682617188 C-419.135986328125,-146.72799682617188 -439.69000244140625,-73.80500030517578 -439.69000244140625,-73.80500030517578 C-439.69000244140625,-73.80500030517578 -460.7690124511719,-146.72799682617188 -460.7690124511719,-146.72799682617188 C-460.7690124511719,-146.72799682617188 -485.64300537109375,-146.72799682617188 -485.64300537109375,-146.72799682617188 C-485.64300537109375,-146.72799682617188 -452.52099609375,-43.30099868774414 -452.52099609375,-43.30099868774414z"></path></g></g><g style="display: none;" transform="matrix(1,0,0,1,565.3963623046875,160.01400756835938)" opacity="1"><g opacity="1" transform="matrix(1,0,0,1,0,0)"><path fill="rgb(255,235,0)" fill-opacity="1" d=" M-72.15899658203125,78.79399871826172 C-45.18899917602539,78.79399871826172 -28.823999404907227,65.30899810791016 -28.823999404907227,45.409000396728516 C-28.823999404907227,1.2890000343322754 -90.88099670410156,25.24799919128418 -90.88099670410156,3.121999979019165 C-90.88099670410156,-3.947999954223633 -84.59600067138672,-8.005999565124512 -73.33699798583984,-8.005999565124512 C-62.34000015258789,-8.005999565124512 -55.79399871826172,-2.9010000228881836 -55.138999938964844,5.609000205993652 C-55.138999938964844,5.609000205993652 -30.003000259399414,5.609000205993652 -30.003000259399414,5.609000205993652 C-30.003000259399414,-15.862000465393066 -47.676998138427734,-28.822999954223633 -72.94499969482422,-28.822999954223633 C-98.4739990234375,-28.822999954223633 -114.18499755859375,-16.38599967956543 -114.18499755859375,3.7760000228881836 C-114.18499755859375,47.50299835205078 -52.38999938964844,24.593000411987305 -52.38999938964844,45.801998138427734 C-52.38999938964844,53.13399887084961 -59.327999114990234,57.97800064086914 -71.63500213623047,57.97800064086914 C-84.33399963378906,57.97800064086914 -91.53500366210938,51.694000244140625 -91.7969970703125,41.220001220703125 C-91.7969970703125,41.220001220703125 -117.3270034790039,41.220001220703125 -117.3270034790039,41.220001220703125 C-117.3270034790039,64.78600311279297 -98.73600006103516,78.79399871826172 -72.15899658203125,78.79399871826172z"></path></g><g opacity="1" transform="matrix(1,0,0,1,0,0)"><path fill="rgb(255,235,0)" fill-opacity="1" d=" M-229.49600219726562,76.6989974975586 C-229.49600219726562,76.6989974975586 -206.9770050048828,76.6989974975586 -206.9770050048828,76.6989974975586 C-206.9770050048828,76.6989974975586 -206.9770050048828,10.321999549865723 -206.9770050048828,10.321999549865723 C-206.9770050048828,10.321999549865723 -156.17999267578125,76.6989974975586 -156.17999267578125,76.6989974975586 C-156.17999267578125,76.6989974975586 -133.0070037841797,76.6989974975586 -133.0070037841797,76.6989974975586 C-133.0070037841797,76.6989974975586 -133.0070037841797,-26.72800064086914 -133.0070037841797,-26.72800064086914 C-133.0070037841797,-26.72800064086914 -155.65699768066406,-26.72800064086914 -155.65699768066406,-26.72800064086914 C-155.65699768066406,-26.72800064086914 -155.65699768066406,40.04100036621094 -155.65699768066406,40.04100036621094 C-155.65699768066406,40.04100036621094 -206.322998046875,-26.72800064086914 -206.322998046875,-26.72800064086914 C-206.322998046875,-26.72800064086914 -229.49600219726562,-26.72800064086914 -229.49600219726562,-26.72800064086914 C-229.49600219726562,-26.72800064086914 -229.49600219726562,76.6989974975586 -229.49600219726562,76.6989974975586z"></path></g><g opacity="1" transform="matrix(1,0,0,1,0,0)"><path fill="rgb(255,235,0)" fill-opacity="1" d=" M-271.0950012207031,76.6989974975586 C-271.0950012207031,76.6989974975586 -248.5760040283203,76.6989974975586 -248.5760040283203,76.6989974975586 C-248.5760040283203,76.6989974975586 -248.5760040283203,-26.72800064086914 -248.5760040283203,-26.72800064086914 C-248.5760040283203,-26.72800064086914 -271.0950012207031,-26.72800064086914 -271.0950012207031,-26.72800064086914 C-271.0950012207031,-26.72800064086914 -271.0950012207031,76.6989974975586 -271.0950012207031,76.6989974975586z"></path></g><g opacity="1" transform="matrix(1,0,0,1,0,0)"><path fill="rgb(255,235,0)" fill-opacity="1" d=" M-360.7929992675781,76.6989974975586 C-360.7929992675781,76.6989974975586 -282.37200927734375,76.6989974975586 -282.37200927734375,76.6989974975586 C-282.37200927734375,76.6989974975586 -282.37200927734375,56.93000030517578 -282.37200927734375,56.93000030517578 C-282.37200927734375,56.93000030517578 -338.2749938964844,56.93000030517578 -338.2749938964844,56.93000030517578 C-338.2749938964844,56.93000030517578 -338.2749938964844,-26.72800064086914 -338.2749938964844,-26.72800064086914 C-338.2749938964844,-26.72800064086914 -360.7929992675781,-26.72800064086914 -360.7929992675781,-26.72800064086914 C-360.7929992675781,-26.72800064086914 -360.7929992675781,76.6989974975586 -360.7929992675781,76.6989974975586z"></path></g><g opacity="1" transform="matrix(1,0,0,1,0,0)"><path fill="rgb(255,235,0)" fill-opacity="1" d=" M-428.4309997558594,56.79899978637695 C-446.760009765625,56.79899978637695 -459.0669860839844,43.18299865722656 -459.0669860839844,23.80699920654297 C-459.0669860839844,5.870999813079834 -446.760009765625,-6.828000068664551 -428.4309997558594,-6.828000068664551 C-410.6260070800781,-6.828000068664551 -398.58099365234375,5.870999813079834 -398.58099365234375,23.80699920654297 C-398.58099365234375,43.18299865722656 -410.6260070800781,56.79899978637695 -428.4309997558594,56.79899978637695z M-428.4309997558594,78.79399871826172 C-397.010009765625,78.79399871826172 -375.27801513671875,56.2760009765625 -375.27801513671875,24.461999893188477 C-375.27801513671875,-6.697000026702881 -397.010009765625,-28.822999954223633 -428.4309997558594,-28.822999954223633 C-460.3760070800781,-28.822999954223633 -482.3699951171875,-6.697000026702881 -482.3699951171875,24.461999893188477 C-482.3699951171875,56.2760009765625 -460.3760070800781,78.79399871826172 -428.4309997558594,78.79399871826172z"></path></g><g opacity="1" transform="matrix(1,0,0,1,-2,0)"><path fill="rgb(255,235,0)" fill-opacity="1" d=" M91.36399841308594,-43.30099868774414 C91.36399841308594,-43.30099868774414 113.88200378417969,-43.30099868774414 113.88200378417969,-43.30099868774414 C113.88200378417969,-43.30099868774414 113.88200378417969,-85.98100280761719 113.88200378417969,-85.98100280761719 C113.88200378417969,-85.98100280761719 166.7740020751953,-85.98100280761719 166.7740020751953,-85.98100280761719 C166.7740020751953,-85.98100280761719 166.7740020751953,-106.7969970703125 166.7740020751953,-106.7969970703125 C166.7740020751953,-106.7969970703125 113.88200378417969,-106.7969970703125 113.88200378417969,-106.7969970703125 C113.88200378417969,-106.7969970703125 113.88200378417969,-126.43499755859375 113.88200378417969,-126.43499755859375 C113.88200378417969,-126.43499755859375 171.3560028076172,-126.43499755859375 171.3560028076172,-126.43499755859375 C171.3560028076172,-126.43499755859375 171.3560028076172,-146.72799682617188 171.3560028076172,-146.72799682617188 C171.3560028076172,-146.72799682617188 91.36399841308594,-146.72799682617188 91.36399841308594,-146.72799682617188 C91.36399841308594,-146.72799682617188 91.36399841308594,-43.30099868774414 91.36399841308594,-43.30099868774414z"></path></g><g opacity="1" transform="matrix(1,0,0,1,-2,0)"><path fill="rgb(255,235,0)" fill-opacity="1" d=" M-1.975000023841858,-43.30099868774414 C-1.975000023841858,-43.30099868774414 20.54400062561035,-43.30099868774414 20.54400062561035,-43.30099868774414 C20.54400062561035,-43.30099868774414 20.54400062561035,-85.98100280761719 20.54400062561035,-85.98100280761719 C20.54400062561035,-85.98100280761719 73.43499755859375,-85.98100280761719 73.43499755859375,-85.98100280761719 C73.43499755859375,-85.98100280761719 73.43499755859375,-106.7969970703125 73.43499755859375,-106.7969970703125 C73.43499755859375,-106.7969970703125 20.54400062561035,-106.7969970703125 20.54400062561035,-106.7969970703125 C20.54400062561035,-106.7969970703125 20.54400062561035,-126.43499755859375 20.54400062561035,-126.43499755859375 C20.54400062561035,-126.43499755859375 78.01799774169922,-126.43499755859375 78.01799774169922,-126.43499755859375 C78.01799774169922,-126.43499755859375 78.01799774169922,-146.72799682617188 78.01799774169922,-146.72799682617188 C78.01799774169922,-146.72799682617188 -1.975000023841858,-146.72799682617188 -1.975000023841858,-146.72799682617188 C-1.975000023841858,-146.72799682617188 -1.975000023841858,-43.30099868774414 -1.975000023841858,-43.30099868774414z"></path></g><g opacity="1" transform="matrix(1,0,0,1,-1.8300000429153442,0)"><path fill="rgb(255,235,0)" fill-opacity="1" d=" M-91.6729965209961,-43.30099868774414 C-91.6729965209961,-43.30099868774414 -13.251999855041504,-43.30099868774414 -13.251999855041504,-43.30099868774414 C-13.251999855041504,-43.30099868774414 -13.251999855041504,-63.06999969482422 -13.251999855041504,-63.06999969482422 C-13.251999855041504,-63.06999969482422 -69.15499877929688,-63.06999969482422 -69.15499877929688,-63.06999969482422 C-69.15499877929688,-63.06999969482422 -69.15499877929688,-146.72799682617188 -69.15499877929688,-146.72799682617188 C-69.15499877929688,-146.72799682617188 -91.6729965209961,-146.72799682617188 -91.6729965209961,-146.72799682617188 C-91.6729965209961,-146.72799682617188 -91.6729965209961,-43.30099868774414 -91.6729965209961,-43.30099868774414z"></path></g><g opacity="1" transform="matrix(1,0,0,1,-1.8300000429153442,0)"><path fill="rgb(255,235,0)" fill-opacity="1" d=" M-159.31100463867188,-63.20100021362305 C-177.63999938964844,-63.20100021362305 -189.94700622558594,-76.81700134277344 -189.94700622558594,-96.19300079345703 C-189.94700622558594,-114.12899780273438 -177.63999938964844,-126.8280029296875 -159.31100463867188,-126.8280029296875 C-141.50599670410156,-126.8280029296875 -129.46099853515625,-114.12899780273438 -129.46099853515625,-96.19300079345703 C-129.46099853515625,-76.81700134277344 -141.50599670410156,-63.20100021362305 -159.31100463867188,-63.20100021362305z M-159.31100463867188,-41.20600128173828 C-127.88999938964844,-41.20600128173828 -106.15799713134766,-63.7239990234375 -106.15799713134766,-95.53800201416016 C-106.15799713134766,-126.6969985961914 -127.88999938964844,-148.822998046875 -159.31100463867188,-148.822998046875 C-191.25599670410156,-148.822998046875 -213.25,-126.6969985961914 -213.25,-95.53800201416016 C-213.25,-63.7239990234375 -191.25599670410156,-41.20600128173828 -159.31100463867188,-41.20600128173828z"></path></g><g opacity="1" transform="matrix(1,0,0,1,0,0)"><path fill="rgb(255,235,0)" fill-opacity="1" d=" M-237.1699981689453,-146.54200744628906 C-237.1699981689453,-146.54200744628906 -314.7099914550781,-58.63399887084961 -314.7099914550781,-58.63399887084961 C-314.7099914550781,-58.63399887084961 -338.3659973144531,-85.35700225830078 -338.3659973144531,-85.35700225830078 C-338.3659973144531,-85.35700225830078 -283.3139953613281,-146.54200744628906 -283.3139953613281,-146.54200744628906 C-283.3139953613281,-146.54200744628906 -312.37298583984375,-146.54200744628906 -312.37298583984375,-146.54200744628906 C-312.37298583984375,-146.54200744628906 -352.385009765625,-101.27300262451172 -352.385009765625,-101.27300262451172 C-352.385009765625,-101.27300262451172 -392.39599609375,-146.54200744628906 -392.39599609375,-146.54200744628906 C-392.39599609375,-146.54200744628906 -421.4549865722656,-146.54200744628906 -421.4549865722656,-146.54200744628906 C-421.4549865722656,-146.54200744628906 -366.40301513671875,-85.35700225830078 -366.40301513671875,-85.35700225830078 C-366.40301513671875,-85.35700225830078 -389.9129943847656,-58.63399887084961 -389.9129943847656,-58.63399887084961 C-389.9129943847656,-58.63399887084961 -467.6000061035156,-146.54200744628906 -467.6000061035156,-146.54200744628906 C-467.6000061035156,-146.54200744628906 -496.65899658203125,-146.54200744628906 -496.65899658203125,-146.54200744628906 C-496.65899658203125,-146.54200744628906 -403.7860107421875,-43.30099868774414 -403.7860107421875,-43.30099868774414 C-403.7860107421875,-43.30099868774414 -376.18701171875,-43.30099868774414 -376.18701171875,-43.30099868774414 C-376.18701171875,-43.30099868774414 -352.385009765625,-69.73200225830078 -352.385009765625,-69.73200225830078 C-352.385009765625,-69.73200225830078 -328.5820007324219,-43.30099868774414 -328.5820007324219,-43.30099868774414 C-328.5820007324219,-43.30099868774414 -300.9830017089844,-43.30099868774414 -300.9830017089844,-43.30099868774414 C-300.9830017089844,-43.30099868774414 -208.11000061035156,-146.54200744628906 -208.11000061035156,-146.54200744628906 C-208.11000061035156,-146.54200744628906 -237.1699981689453,-146.54200744628906 -237.1699981689453,-146.54200744628906z"></path></g></g><g style="display: none;" transform="matrix(1,0,0,1,578.1306762695312,160.01400756835938)" opacity="1"><g opacity="1" transform="matrix(1,0,0,1,0,0)"><path fill="rgb(255,235,0)" fill-opacity="1" d=" M-72.15899658203125,78.79399871826172 C-45.18899917602539,78.79399871826172 -28.823999404907227,65.30899810791016 -28.823999404907227,45.409000396728516 C-28.823999404907227,1.2890000343322754 -90.88099670410156,25.24799919128418 -90.88099670410156,3.121999979019165 C-90.88099670410156,-3.947999954223633 -84.59600067138672,-8.005999565124512 -73.33699798583984,-8.005999565124512 C-62.34000015258789,-8.005999565124512 -55.79399871826172,-2.9010000228881836 -55.138999938964844,5.609000205993652 C-55.138999938964844,5.609000205993652 -30.003000259399414,5.609000205993652 -30.003000259399414,5.609000205993652 C-30.003000259399414,-15.862000465393066 -47.676998138427734,-28.822999954223633 -72.94499969482422,-28.822999954223633 C-98.4739990234375,-28.822999954223633 -114.18499755859375,-16.38599967956543 -114.18499755859375,3.7760000228881836 C-114.18499755859375,47.50299835205078 -52.38999938964844,24.593000411987305 -52.38999938964844,45.801998138427734 C-52.38999938964844,53.13399887084961 -59.327999114990234,57.97800064086914 -71.63500213623047,57.97800064086914 C-84.33399963378906,57.97800064086914 -91.53500366210938,51.694000244140625 -91.7969970703125,41.220001220703125 C-91.7969970703125,41.220001220703125 -117.3270034790039,41.220001220703125 -117.3270034790039,41.220001220703125 C-117.3270034790039,64.78600311279297 -98.73600006103516,78.79399871826172 -72.15899658203125,78.79399871826172z"></path></g><g opacity="1" transform="matrix(1,0,0,1,0,0)"><path fill="rgb(255,235,0)" fill-opacity="1" d=" M-229.49600219726562,76.6989974975586 C-229.49600219726562,76.6989974975586 -206.9770050048828,76.6989974975586 -206.9770050048828,76.6989974975586 C-206.9770050048828,76.6989974975586 -206.9770050048828,10.321999549865723 -206.9770050048828,10.321999549865723 C-206.9770050048828,10.321999549865723 -156.17999267578125,76.6989974975586 -156.17999267578125,76.6989974975586 C-156.17999267578125,76.6989974975586 -133.0070037841797,76.6989974975586 -133.0070037841797,76.6989974975586 C-133.0070037841797,76.6989974975586 -133.0070037841797,-26.72800064086914 -133.0070037841797,-26.72800064086914 C-133.0070037841797,-26.72800064086914 -155.65699768066406,-26.72800064086914 -155.65699768066406,-26.72800064086914 C-155.65699768066406,-26.72800064086914 -155.65699768066406,40.04100036621094 -155.65699768066406,40.04100036621094 C-155.65699768066406,40.04100036621094 -206.322998046875,-26.72800064086914 -206.322998046875,-26.72800064086914 C-206.322998046875,-26.72800064086914 -229.49600219726562,-26.72800064086914 -229.49600219726562,-26.72800064086914 C-229.49600219726562,-26.72800064086914 -229.49600219726562,76.6989974975586 -229.49600219726562,76.6989974975586z"></path></g><g opacity="1" transform="matrix(1,0,0,1,0,0)"><path fill="rgb(255,235,0)" fill-opacity="1" d=" M-271.0950012207031,76.6989974975586 C-271.0950012207031,76.6989974975586 -248.5760040283203,76.6989974975586 -248.5760040283203,76.6989974975586 C-248.5760040283203,76.6989974975586 -248.5760040283203,-26.72800064086914 -248.5760040283203,-26.72800064086914 C-248.5760040283203,-26.72800064086914 -271.0950012207031,-26.72800064086914 -271.0950012207031,-26.72800064086914 C-271.0950012207031,-26.72800064086914 -271.0950012207031,76.6989974975586 -271.0950012207031,76.6989974975586z"></path></g><g opacity="1" transform="matrix(1,0,0,1,0,0)"><path fill="rgb(255,235,0)" fill-opacity="1" d=" M-360.7929992675781,76.6989974975586 C-360.7929992675781,76.6989974975586 -282.37200927734375,76.6989974975586 -282.37200927734375,76.6989974975586 C-282.37200927734375,76.6989974975586 -282.37200927734375,56.93000030517578 -282.37200927734375,56.93000030517578 C-282.37200927734375,56.93000030517578 -338.2749938964844,56.93000030517578 -338.2749938964844,56.93000030517578 C-338.2749938964844,56.93000030517578 -338.2749938964844,-26.72800064086914 -338.2749938964844,-26.72800064086914 C-338.2749938964844,-26.72800064086914 -360.7929992675781,-26.72800064086914 -360.7929992675781,-26.72800064086914 C-360.7929992675781,-26.72800064086914 -360.7929992675781,76.6989974975586 -360.7929992675781,76.6989974975586z"></path></g><g opacity="1" transform="matrix(1,0,0,1,0,0)"><path fill="rgb(255,235,0)" fill-opacity="1" d=" M-428.4309997558594,56.79899978637695 C-446.760009765625,56.79899978637695 -459.0669860839844,43.18299865722656 -459.0669860839844,23.80699920654297 C-459.0669860839844,5.870999813079834 -446.760009765625,-6.828000068664551 -428.4309997558594,-6.828000068664551 C-410.6260070800781,-6.828000068664551 -398.58099365234375,5.870999813079834 -398.58099365234375,23.80699920654297 C-398.58099365234375,43.18299865722656 -410.6260070800781,56.79899978637695 -428.4309997558594,56.79899978637695z M-428.4309997558594,78.79399871826172 C-397.010009765625,78.79399871826172 -375.27801513671875,56.2760009765625 -375.27801513671875,24.461999893188477 C-375.27801513671875,-6.697000026702881 -397.010009765625,-28.822999954223633 -428.4309997558594,-28.822999954223633 C-460.3760070800781,-28.822999954223633 -482.3699951171875,-6.697000026702881 -482.3699951171875,24.461999893188477 C-482.3699951171875,56.2760009765625 -460.3760070800781,78.79399871826172 -428.4309997558594,78.79399871826172z"></path></g><g opacity="1" transform="matrix(1,0,0,1,0,0)"><path fill="rgb(255,235,0)" fill-opacity="1" d=" M-19.93600082397461,-43.30099868774414 C-19.93600082397461,-43.30099868774414 2.5829999446868896,-43.30099868774414 2.5829999446868896,-43.30099868774414 C2.5829999446868896,-43.30099868774414 2.5829999446868896,-85.98100280761719 2.5829999446868896,-85.98100280761719 C2.5829999446868896,-85.98100280761719 55.4739990234375,-85.98100280761719 55.4739990234375,-85.98100280761719 C55.4739990234375,-85.98100280761719 55.4739990234375,-106.7969970703125 55.4739990234375,-106.7969970703125 C55.4739990234375,-106.7969970703125 2.5829999446868896,-106.7969970703125 2.5829999446868896,-106.7969970703125 C2.5829999446868896,-106.7969970703125 2.5829999446868896,-126.43499755859375 2.5829999446868896,-126.43499755859375 C2.5829999446868896,-126.43499755859375 60.05699920654297,-126.43499755859375 60.05699920654297,-126.43499755859375 C60.05699920654297,-126.43499755859375 60.05699920654297,-146.72799682617188 60.05699920654297,-146.72799682617188 C60.05699920654297,-146.72799682617188 -19.93600082397461,-146.72799682617188 -19.93600082397461,-146.72799682617188 C-19.93600082397461,-146.72799682617188 -19.93600082397461,-43.30099868774414 -19.93600082397461,-43.30099868774414z"></path></g><g opacity="1" transform="matrix(1,0,0,1,0,0)"><path fill="rgb(255,235,0)" fill-opacity="1" d=" M-113.27400207519531,-43.30099868774414 C-113.27400207519531,-43.30099868774414 -90.75599670410156,-43.30099868774414 -90.75599670410156,-43.30099868774414 C-90.75599670410156,-43.30099868774414 -90.75599670410156,-85.98100280761719 -90.75599670410156,-85.98100280761719 C-90.75599670410156,-85.98100280761719 -37.86399841308594,-85.98100280761719 -37.86399841308594,-85.98100280761719 C-37.86399841308594,-85.98100280761719 -37.86399841308594,-106.7969970703125 -37.86399841308594,-106.7969970703125 C-37.86399841308594,-106.7969970703125 -90.75599670410156,-106.7969970703125 -90.75599670410156,-106.7969970703125 C-90.75599670410156,-106.7969970703125 -90.75599670410156,-126.43499755859375 -90.75599670410156,-126.43499755859375 C-90.75599670410156,-126.43499755859375 -33.28200149536133,-126.43499755859375 -33.28200149536133,-126.43499755859375 C-33.28200149536133,-126.43499755859375 -33.28200149536133,-146.72799682617188 -33.28200149536133,-146.72799682617188 C-33.28200149536133,-146.72799682617188 -113.27400207519531,-146.72799682617188 -113.27400207519531,-146.72799682617188 C-113.27400207519531,-146.72799682617188 -113.27400207519531,-43.30099868774414 -113.27400207519531,-43.30099868774414z"></path></g><g opacity="1" transform="matrix(1,0,0,1,0,0)"><path fill="rgb(255,235,0)" fill-opacity="1" d=" M-202.9720001220703,-43.30099868774414 C-202.9720001220703,-43.30099868774414 -124.5510025024414,-43.30099868774414 -124.5510025024414,-43.30099868774414 C-124.5510025024414,-43.30099868774414 -124.5510025024414,-63.06999969482422 -124.5510025024414,-63.06999969482422 C-124.5510025024414,-63.06999969482422 -180.45399475097656,-63.06999969482422 -180.45399475097656,-63.06999969482422 C-180.45399475097656,-63.06999969482422 -180.45399475097656,-146.72799682617188 -180.45399475097656,-146.72799682617188 C-180.45399475097656,-146.72799682617188 -202.9720001220703,-146.72799682617188 -202.9720001220703,-146.72799682617188 C-202.9720001220703,-146.72799682617188 -202.9720001220703,-43.30099868774414 -202.9720001220703,-43.30099868774414z"></path></g><g opacity="1" transform="matrix(1,0,0,1,0,0)"><path fill="rgb(255,235,0)" fill-opacity="1" d=" M-270.6109924316406,-63.20100021362305 C-288.94000244140625,-63.20100021362305 -301.2460021972656,-76.81700134277344 -301.2460021972656,-96.19300079345703 C-301.2460021972656,-114.12899780273438 -288.94000244140625,-126.8280029296875 -270.6109924316406,-126.8280029296875 C-252.80599975585938,-126.8280029296875 -240.76100158691406,-114.12899780273438 -240.76100158691406,-96.19300079345703 C-240.76100158691406,-76.81700134277344 -252.80599975585938,-63.20100021362305 -270.6109924316406,-63.20100021362305z M-270.6109924316406,-41.20600128173828 C-239.19000244140625,-41.20600128173828 -217.45700073242188,-63.7239990234375 -217.45700073242188,-95.53800201416016 C-217.45700073242188,-126.6969985961914 -239.19000244140625,-148.822998046875 -270.6109924316406,-148.822998046875 C-302.5559997558594,-148.822998046875 -324.54998779296875,-126.6969985961914 -324.54998779296875,-95.53800201416016 C-324.54998779296875,-63.7239990234375 -302.5559997558594,-41.20600128173828 -270.6109924316406,-41.20600128173828z"></path></g><g opacity="1" transform="matrix(1,0,0,1,0,0)"><path fill="rgb(255,235,0)" fill-opacity="1" d=" M-452.52099609375,-43.30099868774414 C-452.52099609375,-43.30099868774414 -428.0379943847656,-43.30099868774414 -428.0379943847656,-43.30099868774414 C-428.0379943847656,-43.30099868774414 -405.3890075683594,-113.08100128173828 -405.3890075683594,-113.08100128173828 C-405.3890075683594,-113.08100128173828 -382.4779968261719,-43.30099868774414 -382.4779968261719,-43.30099868774414 C-382.4779968261719,-43.30099868774414 -357.9960021972656,-43.30099868774414 -357.9960021972656,-43.30099868774414 C-357.9960021972656,-43.30099868774414 -324.87298583984375,-146.72799682617188 -324.87298583984375,-146.72799682617188 C-324.87298583984375,-146.72799682617188 -349.8789978027344,-146.72799682617188 -349.8789978027344,-146.72799682617188 C-349.8789978027344,-146.72799682617188 -370.82598876953125,-73.80500030517578 -370.82598876953125,-73.80500030517578 C-370.82598876953125,-73.80500030517578 -391.77301025390625,-146.72799682617188 -391.77301025390625,-146.72799682617188 C-391.77301025390625,-146.72799682617188 -419.135986328125,-146.72799682617188 -419.135986328125,-146.72799682617188 C-419.135986328125,-146.72799682617188 -439.69000244140625,-73.80500030517578 -439.69000244140625,-73.80500030517578 C-439.69000244140625,-73.80500030517578 -460.7690124511719,-146.72799682617188 -460.7690124511719,-146.72799682617188 C-460.7690124511719,-146.72799682617188 -485.64300537109375,-146.72799682617188 -485.64300537109375,-146.72799682617188 C-485.64300537109375,-146.72799682617188 -452.52099609375,-43.30099868774414 -452.52099609375,-43.30099868774414z"></path></g></g></g></svg>
